<?xml version="1.0" encoding="UTF-8" standalone="no"?>
<!-- Created with Inkscape (http://www.inkscape.org/) -->

<svg
   xmlns:dc="http://purl.org/dc/elements/1.1/"
   xmlns:cc="http://creativecommons.org/ns#"
   xmlns:rdf="http://www.w3.org/1999/02/22-rdf-syntax-ns#"
   xmlns:svg="http://www.w3.org/2000/svg"
   xmlns="http://www.w3.org/2000/svg"
   xmlns:sodipodi="http://sodipodi.sourceforge.net/DTD/sodipodi-0.dtd"
   xmlns:inkscape="http://www.inkscape.org/namespaces/inkscape"
   width="50mm"
   height="50mm"
   viewBox="0 0 177.16536 177.16536"
   id="svg30870"
   version="1.1"
   inkscape:version="0.91 r13725"
   sodipodi:docname="computer sind scheisse export.svg">
  <defs
     id="defs30872" />
  <sodipodi:namedview
     id="base"
     pagecolor="#ffffff"
     bordercolor="#666666"
     borderopacity="1.0"
     inkscape:pageopacity="0.0"
     inkscape:pageshadow="2"
     inkscape:zoom="0.90344182"
     inkscape:cx="-40.804557"
     inkscape:cy="48.43246"
     inkscape:document-units="mm"
     inkscape:current-layer="layer1"
     showgrid="false"
     fit-margin-top="0"
     fit-margin-left="0"
     fit-margin-right="0"
     fit-margin-bottom="0"
     inkscape:window-width="1368"
     inkscape:window-height="768"
     inkscape:window-x="3"
     inkscape:window-y="44"
     inkscape:window-maximized="0" />
  <metadata
     id="metadata30875">
    <rdf:RDF>
      <cc:Work
         rdf:about="">
        <dc:format>image/svg+xml</dc:format>
        <dc:type
           rdf:resource="http://purl.org/dc/dcmitype/StillImage" />
        <dc:title></dc:title>
      </cc:Work>
    </rdf:RDF>
  </metadata>
  <g
     inkscape:label="Layer 1"
     inkscape:groupmode="layer"
     id="layer1"
     transform="translate(-272.83466,-448.22835)">
    <g
       id="g4158"
       transform="translate(-10.629919,10.629921)">
      <g
         id="g4292">
        <rect
           style="color:#000000;clip-rule:nonzero;display:inline;overflow:visible;visibility:visible;opacity:1;isolation:auto;mix-blend-mode:normal;color-interpolation:sRGB;color-interpolation-filters:linearRGB;solid-color:#000000;solid-opacity:1;fill:#ffb4ff;fill-opacity:1;fill-rule:evenodd;stroke:none;stroke-width:0.1;stroke-linecap:butt;stroke-linejoin:miter;stroke-miterlimit:4;stroke-dasharray:none;stroke-dashoffset:0;stroke-opacity:1;color-rendering:auto;image-rendering:auto;shape-rendering:auto;text-rendering:auto;enable-background:accumulate"
           id="rect21175-6"
           width="198.4252"
           height="198.4252"
           x="272.83466"
           y="426.96851" />
        <g
           id="g4268">
          <g
             id="g4203">
            <path
               inkscape:connector-curvature="0"
               id="path31437"
               style="font-style:normal;font-variant:normal;font-weight:bold;font-stretch:normal;font-size:medium;line-height:125%;font-family:'Noto Sans';-inkscape-font-specification:'Noto Sans Bold';text-align:center;letter-spacing:0px;word-spacing:0px;text-anchor:middle;fill:#ffffff;fill-opacity:1;stroke:none;stroke-width:1px;stroke-linecap:butt;stroke-linejoin:miter;stroke-opacity:1"
               d="m 316.01676,502.41559 q -6.62692,0 -6.62692,-7.27438 0,-3.61815 1.80272,-5.52244 1.80273,-1.91698 5.16697,-1.91698 2.46288,0 4.41795,0.96484 l -1.14258,2.99608 q -0.91405,-0.36816 -1.70116,-0.59668 -0.78711,-0.24121 -1.57421,-0.24121 -3.02147,0 -3.02147,4.291 0,4.16404 3.02147,4.16404 1.11718,0 2.06932,-0.29199 0.95215,-0.30469 1.90429,-0.93945 l 0,3.31346 q -0.93945,0.59668 -1.90429,0.82519 -0.95214,0.22852 -2.41209,0.22852 z" />
            <path
               inkscape:connector-curvature="0"
               id="path31439"
               style="font-style:normal;font-variant:normal;font-weight:bold;font-stretch:normal;font-size:medium;line-height:125%;font-family:'Noto Sans';-inkscape-font-specification:'Noto Sans Bold';text-align:center;letter-spacing:0px;word-spacing:0px;text-anchor:middle;fill:#ffffff;fill-opacity:1;stroke:none;stroke-width:1px;stroke-linecap:butt;stroke-linejoin:miter;stroke-opacity:1"
               d="m 326.69346,495.03964 q 0,2.10742 0.68555,3.18651 0.69824,1.0791 2.25975,1.0791 1.54882,0 2.22167,-1.0664 0.68554,-1.0791 0.68554,-3.19921 0,-2.10741 -0.68554,-3.16111 -0.68554,-1.05371 -2.24706,-1.05371 -1.54882,0 -2.23436,1.05371 -0.68555,1.04101 -0.68555,3.16111 z m 9.81343,0 q 0,3.46581 -1.82811,5.42088 -1.82812,1.95507 -5.0908,1.95507 -2.04394,0 -3.60545,-0.88867 -1.56152,-0.90137 -2.3994,-2.57714 -0.83789,-1.67577 -0.83789,-3.91014 0,-3.47849 1.81542,-5.40817 1.81542,-1.92968 5.10349,-1.92968 2.04394,0 3.60545,0.88867 1.56152,0.88866 2.39941,2.55174 0.83788,1.66308 0.83788,3.89744 z" />
            <path
               inkscape:connector-curvature="0"
               id="path31441"
               style="font-style:normal;font-variant:normal;font-weight:bold;font-stretch:normal;font-size:medium;line-height:125%;font-family:'Noto Sans';-inkscape-font-specification:'Noto Sans Bold';text-align:center;letter-spacing:0px;word-spacing:0px;text-anchor:middle;fill:#ffffff;fill-opacity:1;stroke:none;stroke-width:1px;stroke-linecap:butt;stroke-linejoin:miter;stroke-opacity:1"
               d="m 352.41404,502.16168 -3.87205,0 0,-8.29 q 0,-1.53612 -0.52051,-2.29784 -0.50781,-0.77441 -1.61229,-0.77441 -1.48535,0 -2.15819,1.09179 -0.67285,1.09179 -0.67285,3.59276 l 0,6.6777 -3.87205,0 0,-14.19329 2.95799,0 0.5205,1.81542 0.21582,0 q 0.57129,-0.97753 1.65039,-1.52343 1.07909,-0.55859 2.47557,-0.55859 3.18651,0 4.31639,2.08202 l 0.34277,0 q 0.57128,-0.99023 1.67577,-1.53612 1.11718,-0.5459 2.51366,-0.5459 2.4121,0 3.64354,1.24413 1.24413,1.23144 1.24413,3.96092 l 0,9.25484 -3.88475,0 0,-8.29 q 0,-1.53612 -0.5205,-2.29784 -0.50781,-0.77441 -1.6123,-0.77441 -1.42187,0 -2.1328,1.01562 -0.69824,1.01562 -0.69824,3.22459 l 0,7.12204 z" />
            <path
               inkscape:connector-curvature="0"
               id="path31443"
               style="font-style:normal;font-variant:normal;font-weight:bold;font-stretch:normal;font-size:medium;line-height:125%;font-family:'Noto Sans';-inkscape-font-specification:'Noto Sans Bold';text-align:center;letter-spacing:0px;word-spacing:0px;text-anchor:middle;fill:#ffffff;fill-opacity:1;stroke:none;stroke-width:1px;stroke-linecap:butt;stroke-linejoin:miter;stroke-opacity:1"
               d="m 373.04382,502.41559 q -2.50096,0 -3.92283,-1.81543 l -0.20312,0 q 0.20312,1.77734 0.20312,2.05663 l 0,5.75095 -3.87205,0 0,-20.43935 3.14842,0 0.5459,1.84081 0.17773,0 q 1.35839,-2.10741 4.0244,-2.10741 2.51366,0 3.93552,1.94237 1.42187,1.94238 1.42187,5.39548 0,2.27245 -0.67285,3.94823 -0.66015,1.67577 -1.89159,2.55174 -1.23144,0.87598 -2.89452,0.87598 z m -1.14257,-11.61616 q -1.43456,0 -2.09471,0.88867 -0.66016,0.87597 -0.68555,2.90721 l 0,0.41894 q 0,2.28515 0.67285,3.27538 0.68554,0.99023 2.15819,0.99023 2.60253,0 2.60253,-4.291 0,-2.09471 -0.64746,-3.13572 -0.63476,-1.05371 -2.00585,-1.05371 z" />
            <path
               inkscape:connector-curvature="0"
               id="path31445"
               style="font-style:normal;font-variant:normal;font-weight:bold;font-stretch:normal;font-size:medium;line-height:125%;font-family:'Noto Sans';-inkscape-font-specification:'Noto Sans Bold';text-align:center;letter-spacing:0px;word-spacing:0px;text-anchor:middle;fill:#ffffff;fill-opacity:1;stroke:none;stroke-width:1px;stroke-linecap:butt;stroke-linejoin:miter;stroke-opacity:1"
               d="m 391.75662,502.16168 -0.5205,-1.81542 -0.20313,0 q -0.62207,0.99023 -1.76464,1.53612 -1.14257,0.53321 -2.60253,0.53321 -2.50096,0 -3.77049,-1.33301 -1.26952,-1.34569 -1.26952,-3.85935 l 0,-9.25484 3.87205,0 0,8.29 q 0,1.53612 0.5459,2.31053 0.54589,0.76172 1.73925,0.76172 1.62499,0 2.34862,-1.0791 0.72363,-1.09179 0.72363,-3.60545 l 0,-6.6777 3.87205,0 0,14.19329 -2.97069,0 z" />
            <path
               inkscape:connector-curvature="0"
               id="path31447"
               style="font-style:normal;font-variant:normal;font-weight:bold;font-stretch:normal;font-size:medium;line-height:125%;font-family:'Noto Sans';-inkscape-font-specification:'Noto Sans Bold';text-align:center;letter-spacing:0px;word-spacing:0px;text-anchor:middle;fill:#ffffff;fill-opacity:1;stroke:none;stroke-width:1px;stroke-linecap:butt;stroke-linejoin:miter;stroke-opacity:1"
               d="m 404.79465,499.33064 q 1.01562,0 2.43749,-0.44433 l 0,2.88182 q -1.44726,0.64746 -3.55467,0.64746 -2.32323,0 -3.38963,-1.16797 -1.05371,-1.18066 -1.05371,-3.52928 l 0,-6.84274 -1.85351,0 0,-1.63769 2.13281,-1.29491 1.11718,-2.99608 2.47557,0 0,3.02147 3.97361,0 0,2.90721 -3.97361,0 0,6.84274 q 0,0.82519 0.45703,1.21875 0.46972,0.39355 1.23144,0.39355 z" />
            <path
               inkscape:connector-curvature="0"
               id="path31449"
               style="font-style:normal;font-variant:normal;font-weight:bold;font-stretch:normal;font-size:medium;line-height:125%;font-family:'Noto Sans';-inkscape-font-specification:'Noto Sans Bold';text-align:center;letter-spacing:0px;word-spacing:0px;text-anchor:middle;fill:#ffffff;fill-opacity:1;stroke:none;stroke-width:1px;stroke-linecap:butt;stroke-linejoin:miter;stroke-opacity:1"
               d="m 415.96647,490.45666 q -1.23144,0 -1.92968,0.7871 -0.69824,0.77441 -0.7998,2.20898 l 5.43357,0 q -0.0254,-1.43457 -0.74902,-2.20898 -0.72363,-0.7871 -1.95507,-0.7871 z m 0.5459,11.95893 q -3.42772,0 -5.3574,-1.8916 -1.92968,-1.89159 -1.92968,-5.35739 0,-3.56737 1.77734,-5.50974 1.79003,-1.95507 4.93845,-1.95507 3.00878,0 4.68455,1.71386 1.67577,1.71386 1.67577,4.73533 l 0,1.87889 -9.15327,0 q 0.0635,1.65039 0.97753,2.57714 0.91406,0.92675 2.56444,0.92675 1.28222,0 2.42479,-0.2666 1.14258,-0.2666 2.38671,-0.85058 l 0,2.99608 q -1.01562,0.50781 -2.17089,0.74902 -1.15526,0.25391 -2.81834,0.25391 z" />
            <path
               inkscape:connector-curvature="0"
               id="path31451"
               style="font-style:normal;font-variant:normal;font-weight:bold;font-stretch:normal;font-size:medium;line-height:125%;font-family:'Noto Sans';-inkscape-font-specification:'Noto Sans Bold';text-align:center;letter-spacing:0px;word-spacing:0px;text-anchor:middle;fill:#ffffff;fill-opacity:1;stroke:none;stroke-width:1px;stroke-linecap:butt;stroke-linejoin:miter;stroke-opacity:1"
               d="m 433.39705,487.70179 q 0.78711,0 1.30761,0.11426 l -0.29199,3.63084 q -0.46972,-0.12695 -1.14257,-0.12695 -1.85351,0 -2.89452,0.95214 -1.02832,0.95214 -1.02832,2.666 l 0,7.2236 -3.87205,0 0,-14.19329 2.93261,0 0.57128,2.38671 0.19043,0 q 0.66015,-1.19336 1.77734,-1.91699 1.12987,-0.73632 2.45018,-0.73632 z" />
          </g>
          <g
             id="g4213">
            <path
               inkscape:connector-curvature="0"
               id="path31453"
               style="font-style:normal;font-variant:normal;font-weight:bold;font-stretch:normal;font-size:medium;line-height:125%;font-family:'Noto Sans';-inkscape-font-specification:'Noto Sans Bold';text-align:center;letter-spacing:0px;word-spacing:0px;text-anchor:middle;fill:#ffffff;fill-opacity:1;stroke:none;stroke-width:1px;stroke-linecap:butt;stroke-linejoin:miter;stroke-opacity:1"
               d="m 356.46383,530.4467 q 0,2.18359 -1.52343,3.32616 -1.51074,1.14257 -4.53221,1.14257 -1.54882,0 -2.64061,-0.21582 -1.09179,-0.20312 -2.04394,-0.60937 l 0,-3.1992 q 1.0791,0.50781 2.4248,0.85058 1.35839,0.34277 2.3867,0.34277 2.10742,0 2.10742,-1.21874 0,-0.45703 -0.2793,-0.73633 -0.27929,-0.29199 -0.96484,-0.64745 -0.68554,-0.36817 -1.82811,-0.85059 -1.63769,-0.68554 -2.4121,-1.26952 -0.76172,-0.58398 -1.11718,-1.333 -0.34277,-0.76172 -0.34277,-1.86621 0,-1.89159 1.45995,-2.9199 1.47265,-1.04101 4.16404,-1.04101 2.56444,0 4.98923,1.11718 l -1.16796,2.79295 q -1.0664,-0.45702 -1.99315,-0.74902 -0.92676,-0.29199 -1.89159,-0.29199 -1.71386,0 -1.71386,0.92676 0,0.5205 0.54589,0.90136 0.55859,0.38086 2.42479,1.12988 1.66308,0.67285 2.43749,1.25683 0.77441,0.58398 1.14257,1.34569 0.36817,0.76172 0.36817,1.81543 z" />
            <path
               inkscape:connector-curvature="0"
               id="path31455"
               style="font-style:normal;font-variant:normal;font-weight:bold;font-stretch:normal;font-size:medium;line-height:125%;font-family:'Noto Sans';-inkscape-font-specification:'Noto Sans Bold';text-align:center;letter-spacing:0px;word-spacing:0px;text-anchor:middle;fill:#ffffff;fill-opacity:1;stroke:none;stroke-width:1px;stroke-linecap:butt;stroke-linejoin:miter;stroke-opacity:1"
               d="m 359.34565,516.79931 q 0,-1.89159 2.10741,-1.89159 2.10741,0 2.10741,1.89159 0,0.90136 -0.5332,1.40917 -0.5205,0.49512 -1.57421,0.49512 -2.10741,0 -2.10741,-1.90429 z m 4.03709,17.86222 -3.87205,0 0,-14.19329 3.87205,0 0,14.19329 z" />
            <path
               inkscape:connector-curvature="0"
               id="path31457"
               style="font-style:normal;font-variant:normal;font-weight:bold;font-stretch:normal;font-size:medium;line-height:125%;font-family:'Noto Sans';-inkscape-font-specification:'Noto Sans Bold';text-align:center;letter-spacing:0px;word-spacing:0px;text-anchor:middle;fill:#ffffff;fill-opacity:1;stroke:none;stroke-width:1px;stroke-linecap:butt;stroke-linejoin:miter;stroke-opacity:1"
               d="m 380.53402,534.66153 -3.87205,0 0,-8.29 q 0,-1.53613 -0.54589,-2.29784 -0.5459,-0.77441 -1.73925,-0.77441 -1.625,0 -2.34863,1.09179 -0.72362,1.0791 -0.72362,3.59276 l 0,6.6777 -3.87206,0 0,-14.19329 2.958,0 0.5205,1.81542 0.21582,0 q 0.64746,-1.02832 1.77734,-1.54882 1.14257,-0.5332 2.58983,-0.5332 2.47557,0 3.75779,1.34569 1.28222,1.333 1.28222,3.85936 l 0,9.25484 z" />
            <path
               inkscape:connector-curvature="0"
               id="path31459"
               style="font-style:normal;font-variant:normal;font-weight:bold;font-stretch:normal;font-size:medium;line-height:125%;font-family:'Noto Sans';-inkscape-font-specification:'Noto Sans Bold';text-align:center;letter-spacing:0px;word-spacing:0px;text-anchor:middle;fill:#ffffff;fill-opacity:1;stroke:none;stroke-width:1px;stroke-linecap:butt;stroke-linejoin:miter;stroke-opacity:1"
               d="m 389.03984,534.91543 q -2.50096,0 -3.93553,-1.94237 -1.42186,-1.94237 -1.42186,-5.38279 0,-3.49119 1.44726,-5.43356 1.45995,-1.95507 4.01169,-1.95507 2.6787,0 4.08788,2.08202 l 0.12695,0 q -0.29199,-1.58691 -0.29199,-2.83104 l 0,-4.5449 3.88474,0 0,19.75381 -2.97068,0 -0.74902,-1.84081 -0.16504,0 q -1.32031,2.09471 -4.0244,2.09471 z m 1.35839,-3.08494 q 1.48535,0 2.17089,-0.86328 0.69824,-0.86328 0.76172,-2.9326 l 0,-0.41895 q 0,-2.28514 -0.71094,-3.27537 -0.69824,-0.99023 -2.28514,-0.99023 -1.29492,0 -2.01855,1.10449 -0.71093,1.09179 -0.71093,3.1865 0,2.09472 0.72363,3.14843 0.72363,1.04101 2.06932,1.04101 z" />
          </g>
          <g
             id="flowRoot4155"
             style="font-style:normal;font-variant:normal;font-weight:normal;font-stretch:normal;font-size:24.9514122px;line-height:125%;font-family:'Noto Sans';-inkscape-font-specification:'Noto Sans';letter-spacing:0px;word-spacing:0px;fill:#ffffff;fill-opacity:1;stroke:none;stroke-width:1px;stroke-linecap:butt;stroke-linejoin:miter;stroke-opacity:1"
             transform="translate(296.43079,413.45745)">
            <path
               id="path4247"
               style="font-style:normal;font-variant:normal;font-weight:bold;font-stretch:normal;font-size:25.99987411px;font-family:'Noto Sans';-inkscape-font-specification:'Noto Sans Bold';fill:#ffffff"
               d="m 36.953067,149.55892 q 0,2.18359 -1.52343,3.32616 -1.510735,1.14257 -4.532205,1.14257 -1.54882,0 -2.640612,-0.21582 -1.091791,-0.20312 -2.043935,-0.60937 l 0,-3.1992 q 1.079096,0.50781 2.424793,0.85058 1.358392,0.34277 2.386707,0.34277 2.107412,0 2.107412,-1.21874 0,-0.45703 -0.279296,-0.73633 -0.279295,-0.29199 -0.964839,-0.64745 -0.685543,-0.36817 -1.828116,-0.85059 -1.637687,-0.68554 -2.412098,-1.26952 -0.761715,-0.58398 -1.117182,-1.333 -0.342772,-0.76172 -0.342772,-1.8662 0,-1.8916 1.459954,-2.91991 1.472649,-1.04101 4.164043,-1.04101 2.56444,0 4.989233,1.11718 l -1.167963,2.79295 q -1.066401,-0.45702 -1.993154,-0.74902 -0.926754,-0.29199 -1.891593,-0.29199 -1.713859,0 -1.713859,0.92676 0,0.5205 0.545896,0.90136 0.558591,0.38086 2.424793,1.12988 1.663078,0.67285 2.437488,1.25683 0.774411,0.58398 1.142573,1.34569 0.368162,0.76172 0.368162,1.81542 z"
               inkscape:connector-curvature="0" />
            <path
               id="path4249"
               style="font-style:normal;font-variant:normal;font-weight:bold;font-stretch:normal;font-size:25.99987411px;font-family:'Noto Sans';-inkscape-font-specification:'Noto Sans Bold';fill:#ffffff"
               d="m 45.763571,154.02765 q -6.626921,0 -6.626921,-7.27438 0,-3.61814 1.802726,-5.52243 1.802725,-1.91698 5.166967,-1.91698 2.462879,0 4.417947,0.96484 l -1.142572,2.99608 q -0.914058,-0.36817 -1.701164,-0.59668 -0.787105,-0.24121 -1.574211,-0.24121 -3.02147,0 -3.02147,4.29099 0,4.16405 3.02147,4.16405 1.117182,0 2.069326,-0.29199 0.952144,-0.30469 1.904288,-0.93945 l 0,3.31346 q -0.939449,0.59667 -1.904288,0.82519 -0.952144,0.22851 -2.412098,0.22851 z"
               inkscape:connector-curvature="0" />
            <path
               id="path4251"
               style="font-style:normal;font-variant:normal;font-weight:bold;font-stretch:normal;font-size:25.99987411px;font-family:'Noto Sans';-inkscape-font-specification:'Noto Sans Bold';fill:#ffffff"
               d="m 66.45683,153.77375 -3.872051,0 0,-8.29 q 0,-3.07225 -2.285146,-3.07225 -1.624992,0 -2.348621,1.10449 -0.723629,1.10448 -0.723629,3.58006 l 0,6.6777 -3.872052,0 0,-19.75381 3.872052,0 0,4.02439 q 0,0.46973 -0.08887,2.20898 l -0.08887,1.14257 0.203124,0 q 1.294916,-2.08202 4.113262,-2.08202 2.500964,0 3.79588,1.34569 1.294915,1.3457 1.294915,3.85936 l 0,9.25484 z"
               inkscape:connector-curvature="0" />
            <path
               id="path4253"
               style="font-style:normal;font-variant:normal;font-weight:bold;font-stretch:normal;font-size:25.99987411px;font-family:'Noto Sans';-inkscape-font-specification:'Noto Sans Bold';fill:#ffffff"
               d="m 76.346432,142.06873 q -1.23144,0 -1.929679,0.7871 -0.698238,0.77441 -0.7998,2.20898 l 5.433567,0 q -0.02539,-1.43457 -0.74902,-2.20898 -0.723629,-0.7871 -1.955068,-0.7871 z m 0.545895,11.95892 q -3.427717,0 -5.357396,-1.89159 -1.929678,-1.89159 -1.929678,-5.3574 0,-3.56736 1.777335,-5.50973 1.790031,-1.95507 4.938453,-1.95507 3.008775,0 4.684548,1.71386 1.675773,1.71386 1.675773,4.73532 l 0,1.8789 -9.153276,0 q 0.06348,1.65038 0.977534,2.57714 0.914058,0.92675 2.564441,0.92675 1.28222,0 2.424793,-0.2666 1.142572,-0.2666 2.386707,-0.85058 l 0,2.99608 q -1.01562,0.50781 -2.170888,0.74902 -1.155268,0.2539 -2.818346,0.2539 z"
               inkscape:connector-curvature="0" />
            <path
               id="path4255"
               style="font-style:normal;font-variant:normal;font-weight:bold;font-stretch:normal;font-size:25.99987411px;font-family:'Noto Sans';-inkscape-font-specification:'Noto Sans Bold';fill:#ffffff"
               d="m 85.690138,135.91153 q 0,-1.89159 2.107412,-1.89159 2.107412,0 2.107412,1.89159 0,0.90136 -0.533201,1.40917 -0.520505,0.49512 -1.574211,0.49512 -2.107412,0 -2.107412,-1.90429 z m 4.03709,17.86222 -3.872051,0 0,-14.19329 3.872051,0 0,14.19329 z"
               inkscape:connector-curvature="0" />
            <path
               id="path4257"
               style="font-style:normal;font-variant:normal;font-weight:bold;font-stretch:normal;font-size:25.99987411px;font-family:'Noto Sans';-inkscape-font-specification:'Noto Sans Bold';fill:#ffffff"
               d="m 107.60214,138.01894 q 0,0.8125 -0.2666,1.43457 -0.2666,0.60937 -0.67285,1.09179 -0.40624,0.48242 -0.87597,0.85058 -0.46972,0.36816 -0.87597,0.67285 -0.40625,0.30468 -0.67285,0.57128 -0.2666,0.2666 -0.2666,0.5459 0,0.34277 0.33008,0.67285 0.34277,0.33007 1.18065,0.83788 1.85351,1.15527 2.51366,1.77734 0.67285,0.62207 0.99023,1.39648 0.33008,0.77441 0.33008,1.76464 0,2.18358 -1.48534,3.28807 -1.47265,1.10448 -4.35447,1.10448 -1.25683,0 -2.17089,-0.19043 -0.91406,-0.17773 -1.675776,-0.60937 l 0,-3.07225 q 0.672846,0.45703 1.713856,0.77441 1.05371,0.31738 1.8662,0.31738 2.13281,0 2.13281,-1.56151 0,-0.52051 -0.20313,-0.83789 -0.20312,-0.33008 -0.72363,-0.71093 -0.5205,-0.38086 -1.45995,-0.91406 -1.5996,-0.91406 -2.22167,-1.66308 -0.62207,-0.76171 -0.62207,-1.79003 0,-0.8125 0.44434,-1.48534 0.44433,-0.67285 1.333,-1.29492 0.97753,-0.69824 1.37109,-1.20605 0.39355,-0.50781 0.39355,-1.09179 0,-0.76172 -0.8125,-1.26953 -0.7998,-0.5205 -2.06932,-0.5205 -1.472652,0 -2.297844,0.67285 -0.825191,0.66015 -0.825191,1.8789 l 0,14.32024 -3.872052,0 0,-14.45989 q 0,-2.55175 1.853507,-3.98631 1.866202,-1.44726 5.14158,-1.44726 3.09764,0 4.96384,1.12988 1.8662,1.11718 1.8662,3.00877 z"
               inkscape:connector-curvature="0" />
            <path
               id="path4259"
               style="font-style:normal;font-variant:normal;font-weight:bold;font-stretch:normal;font-size:25.99987411px;font-family:'Noto Sans';-inkscape-font-specification:'Noto Sans Bold';fill:#ffffff"
               d="m 118.1392,142.06873 q -1.23144,0 -1.92968,0.7871 -0.69824,0.77441 -0.7998,2.20898 l 5.43357,0 q -0.0254,-1.43457 -0.74902,-2.20898 -0.72363,-0.7871 -1.95507,-0.7871 z m 0.54589,11.95892 q -3.42771,0 -5.35739,-1.89159 -1.92968,-1.89159 -1.92968,-5.3574 0,-3.56736 1.77734,-5.50973 1.79003,-1.95507 4.93845,-1.95507 3.00877,0 4.68455,1.71386 1.67577,1.71386 1.67577,4.73532 l 0,1.8789 -9.15328,0 q 0.0635,1.65038 0.97754,2.57714 0.91405,0.92675 2.56444,0.92675 1.28222,0 2.42479,-0.2666 1.14257,-0.2666 2.38671,-0.85058 l 0,2.99608 q -1.01562,0.50781 -2.17089,0.74902 -1.15527,0.2539 -2.81835,0.2539 z"
               inkscape:connector-curvature="0" />
          </g>
        </g>
      </g>
    </g>
  </g>
</svg>
