<?xml version="1.0" encoding="UTF-8" standalone="no"?>
<!-- Created with Inkscape (http://www.inkscape.org/) -->

<svg
   xmlns:dc="http://purl.org/dc/elements/1.1/"
   xmlns:cc="http://creativecommons.org/ns#"
   xmlns:rdf="http://www.w3.org/1999/02/22-rdf-syntax-ns#"
   xmlns:svg="http://www.w3.org/2000/svg"
   xmlns="http://www.w3.org/2000/svg"
   xmlns:sodipodi="http://sodipodi.sourceforge.net/DTD/sodipodi-0.dtd"
   xmlns:inkscape="http://www.inkscape.org/namespaces/inkscape"
   width="78mm"
   height="41mm"
   viewBox="0 0 276.37795 145.27559"
   id="svg2"
   version="1.1"
   inkscape:version="0.91 r13725"
   sodipodi:docname="radioactive-export.svg"
   inkscape:export-filename="/home/jaseg/Documents/svg/radioactive-export.png"
   inkscape:export-xdpi="600"
   inkscape:export-ydpi="600">
  <defs
     id="defs4">
    <path
       transform="matrix(10,0,0,-10,260,260)"
       id="p"
       d="M 2.8117,-1.046 A 3,3 0 0 1 0.5,2.958 l 0,1.5539 A 10.5,10.5 0 0 1 2,25.3078 l 0,0.5583 A 15,15 0 0 0 14.7975,8.5433 15,15 0 0 0 23.4007,-11.201 l -0.4835,0.2792 A 10.5,10.5 0 0 1 4.1574,-1.8229 Z m 3.4148,8.871 a 10,10 0 0 1 -12.453,0 9.5,9.5 0 0 0 -2.1756,2.7417 13.5,13.5 0 0 0 16.8042,0 A 10,10 0 0 0 6.2265,7.825 Z"
       inkscape:connector-curvature="0" />
  </defs>
  <sodipodi:namedview
     id="base"
     pagecolor="#ffffff"
     bordercolor="#666666"
     borderopacity="1.0"
     inkscape:pageopacity="0.0"
     inkscape:pageshadow="2"
     inkscape:zoom="8.9455961"
     inkscape:cx="219.53324"
     inkscape:cy="105.67847"
     inkscape:document-units="mm"
     inkscape:current-layer="layer1"
     showgrid="false"
     inkscape:window-width="2556"
     inkscape:window-height="1418"
     inkscape:window-x="1366"
     inkscape:window-y="18"
     inkscape:window-maximized="0"
     fit-margin-top="0"
     fit-margin-left="0"
     fit-margin-right="0"
     fit-margin-bottom="0"
     showguides="true"
     inkscape:guide-bbox="true" />
  <metadata
     id="metadata7">
    <rdf:RDF>
      <cc:Work
         rdf:about="">
        <dc:format>image/svg+xml</dc:format>
        <dc:type
           rdf:resource="http://purl.org/dc/dcmitype/StillImage" />
        <dc:title></dc:title>
      </cc:Work>
    </rdf:RDF>
  </metadata>
  <g
     inkscape:label="Layer 1"
     inkscape:groupmode="layer"
     id="layer1"
     transform="translate(-2.9307735,-902.06331)">
    <flowRoot
       xml:space="preserve"
       id="flowRoot5111"
       style="font-style:normal;font-weight:normal;font-size:40px;line-height:125%;font-family:Sans;letter-spacing:0px;word-spacing:0px;fill:#000000;fill-opacity:1;stroke:none;stroke-width:1px;stroke-linecap:butt;stroke-linejoin:miter;stroke-opacity:1"
       transform="translate(2.9307735,923.32315)"><flowRegion
         id="flowRegion5113"><rect
           id="rect5115"
           width="420.5"
           height="560"
           x="-107"
           y="-238.48425" /></flowRegion><flowPara
         id="flowPara5117"></flowPara></flowRoot>    <rect
       style="color:#000000;clip-rule:nonzero;display:inline;overflow:visible;visibility:visible;opacity:1;isolation:auto;mix-blend-mode:normal;color-interpolation:sRGB;color-interpolation-filters:linearRGB;solid-color:#000000;solid-opacity:1;fill:#ffdc32;fill-opacity:1;fill-rule:nonzero;stroke:#000000;stroke-width:5.31496063;stroke-linecap:butt;stroke-linejoin:miter;stroke-miterlimit:4;stroke-dasharray:none;stroke-dashoffset:0;stroke-opacity:0;marker:none;color-rendering:auto;image-rendering:auto;shape-rendering:auto;text-rendering:auto;enable-background:accumulate"
       id="rect4295-6-7-3-3-3"
       width="276.37796"
       height="145.27563"
       x="2.9307697"
       y="902.06329"
       ry="0"
       rx="0" />
    <g
       id="g13861"
       transform="translate(10.636487,-10.712487)">
      <g
         transform="translate(3.6078105e-6,-322.35437)"
         id="g8773">
        <g
           id="g4280-3-1-5-0-4"
           transform="matrix(1.2035723,0,0,1.2027471,-119.71753,732.16413)"
           inkscape:export-filename="/tmp/foo.png"
           inkscape:export-xdpi="600"
           inkscape:export-ydpi="600">
          <path
             inkscape:connector-curvature="0"
             id="path4433-7-8-9-3-3"
             d="m 142.06753,492.17405 -7.16759,12.42077 c 6.52435,3.76758 13.95231,3.76758 20.47666,0 l -7.1676,-12.42077 c -0.046,0.0306 -0.0919,0.0613 -0.13784,0.0919 -0.16847,0.0919 -0.35225,0.18378 -0.53604,0.26036 -0.18378,0.0766 -0.36757,0.15315 -0.56667,0.21442 -0.1991,0.0613 -0.38288,0.1072 -0.58198,0.15315 -0.1991,0.046 -0.3982,0.0766 -0.61262,0.0919 -0.1991,0.0153 -0.41351,0.0306 -0.62793,0.0306 -0.21441,0 -0.41351,-0.0153 -0.62793,-0.0306 -0.1991,-0.0153 -0.41351,-0.0459 -0.61261,-0.0919 -0.1991,-0.046 -0.3982,-0.0919 -0.58199,-0.15315 -0.1991,-0.0613 -0.38288,-0.12253 -0.56666,-0.21442 -0.18379,-0.0766 -0.36757,-0.16847 -0.53604,-0.26036 -0.0613,-0.0306 -0.10721,-0.0613 -0.15316,-0.0919 z" />
          <path
             inkscape:connector-curvature="0"
             id="path4435-6-4-9-6-5"
             d="m 134.89994,469.1244 c -6.52436,3.76758 -10.23068,10.20004 -10.23068,17.73521 l 14.3352,0 c 0,-0.21442 0.0153,-0.42883 0.0306,-0.62793 0.0153,-0.1991 0.0613,-0.41352 0.0919,-0.61262 0.046,-0.1991 0.0919,-0.3982 0.15315,-0.58198 0.0613,-0.1991 0.12253,-0.38289 0.21442,-0.56667 0.0766,-0.18378 0.16847,-0.36757 0.26036,-0.53604 0.0919,-0.16847 0.1991,-0.33694 0.30631,-0.50541 0.10721,-0.16846 0.22973,-0.32162 0.35225,-0.47477 0.12252,-0.15316 0.26036,-0.29099 0.3982,-0.42883 0.13784,-0.13784 0.29099,-0.27568 0.44415,-0.3982 0.15315,-0.12253 0.30631,-0.24505 0.47477,-0.35226 0.12253,-0.0766 0.24505,-0.15315 0.36757,-0.22973 l -7.19822,-12.42077 z" />
          <path
             inkscape:connector-curvature="0"
             id="path4437-3-0-2-3-32"
             d="m 155.3766,469.1244 -7.1676,12.42077 c 0.12252,0.0766 0.24505,0.13784 0.36757,0.22973 0.16847,0.10721 0.32162,0.22973 0.47478,0.35226 0.15315,0.12252 0.29099,0.26036 0.44414,0.3982 0.13784,0.13784 0.27568,0.29099 0.3982,0.42883 0.12253,0.15315 0.24505,0.30631 0.35226,0.47477 0.1072,0.16847 0.21441,0.33694 0.3063,0.50541 0.0919,0.16847 0.18379,0.35226 0.26036,0.53604 0.0766,0.18378 0.15316,0.36757 0.21442,0.56667 0.0613,0.1991 0.10721,0.38288 0.15315,0.58198 0.046,0.1991 0.0766,0.3982 0.0919,0.61262 0.0153,0.1991 0.0306,0.41351 0.0306,0.62793 l 14.33519,0 c -0.0306,-7.53517 -3.73695,-13.96763 -10.2613,-17.73521 z" />
          <circle
             id="circle4439-8-2-2-6-3"
             r="4.0892067"
             cy="486.85962"
             cx="145.1306" />
        </g>
        <g
           id="g4953-9-1-6-9"
           transform="matrix(0.95926556,0,0,0.95926556,5.9545418,359.04727)"
           inkscape:export-filename="/tmp/foo.png"
           inkscape:export-xdpi="600"
           inkscape:export-ydpi="600">
          <g
             transform="matrix(0.9250317,0,0,0.9250317,8.9123666,66.970164)"
             id="g4716-0-9-8-52">
            <flowRoot
               xml:space="preserve"
               id="flowRoot4310-8-63-0-4-4"
               style="font-style:normal;font-variant:normal;font-weight:bold;font-stretch:semi-condensed;font-size:11.40949631px;line-height:125%;font-family:Fixed;-inkscape-font-specification:'Fixed Bold Semi-Condensed';letter-spacing:0px;word-spacing:0px;fill:#000000;fill-opacity:1;stroke:none;stroke-width:1px;stroke-linecap:butt;stroke-linejoin:miter;stroke-opacity:1"
               transform="matrix(0.97664831,0,0,0.97597866,4.7327182,931.0339)"><flowRegion
                 id="flowRegion4312-5-3-3-1-2"><rect
                   id="rect4314-3-00-8-7-04"
                   width="223.27451"
                   height="34.965534"
                   x="83.468086"
                   y="49.969341"
                   style="font-style:normal;font-variant:normal;font-weight:bold;font-stretch:semi-condensed;font-family:Fixed;-inkscape-font-specification:'Fixed Bold Semi-Condensed'" /></flowRegion><flowPara
                 id="flowPara4316-7-9-8-2-4">Device contains atoms and</flowPara></flowRoot>            <flowRoot
               xml:space="preserve"
               id="flowRoot4310-0-5-1-3-8-0"
               style="font-style:normal;font-variant:normal;font-weight:bold;font-stretch:semi-condensed;font-size:11.40949631px;line-height:125%;font-family:Fixed;-inkscape-font-specification:'Fixed Bold Semi-Condensed';letter-spacing:0px;word-spacing:0px;fill:#000000;fill-opacity:1;stroke:none;stroke-width:1px;stroke-linecap:butt;stroke-linejoin:miter;stroke-opacity:1"
               transform="matrix(0.97664831,0,0,0.97597866,1.8703837,29.890216)"><flowRegion
                 id="flowRegion4312-8-1-4-1-9-5"><rect
                   id="rect4314-8-3-7-8-3-90"
                   width="190.60017"
                   height="37.889526"
                   x="86.833397"
                   y="987.20721"
                   style="font-style:normal;font-variant:normal;font-weight:bold;font-stretch:semi-condensed;font-family:Fixed;-inkscape-font-specification:'Fixed Bold Semi-Condensed'" /></flowRegion><flowPara
                 id="flowPara4316-9-9-4-6-1-61">is a tiny bit radioactive</flowPara></flowRoot>          </g>
          <g
             transform="matrix(0.77218923,0,0,0.77218923,21.008741,223.02366)"
             id="g4915-4-2-5-11">
            <flowRoot
               xml:space="preserve"
               id="flowRoot4310-8-6-3-6-0-27"
               style="font-style:normal;font-variant:normal;font-weight:bold;font-stretch:semi-condensed;font-size:11.40949631px;line-height:125%;font-family:Fixed;-inkscape-font-specification:'Fixed Bold Semi-Condensed';letter-spacing:0px;word-spacing:0px;fill:#000000;fill-opacity:1;stroke:none;stroke-width:1px;stroke-linecap:butt;stroke-linejoin:miter;stroke-opacity:1"
               transform="matrix(0.90343065,0,0,0.9028112,13.272327,965.14496)"><flowRegion
                 id="flowRegion4312-5-2-0-3-6-2"><rect
                   id="rect4314-3-0-5-3-1-4"
                   width="223.27451"
                   height="34.965534"
                   x="83.468086"
                   y="49.969341"
                   style="font-style:normal;font-variant:normal;font-weight:bold;font-stretch:semi-condensed;font-family:Fixed;-inkscape-font-specification:'Fixed Bold Semi-Condensed'" /></flowRegion><flowPara
                 id="flowPara4316-7-1-6-1-6-4">Gerät enthält Atome und ist ein</flowPara></flowRoot>            <flowRoot
               xml:space="preserve"
               id="flowRoot4310-0-5-9-1-0-5-69"
               style="font-style:normal;font-variant:normal;font-weight:bold;font-stretch:semi-condensed;font-size:11.40949631px;line-height:125%;font-family:Fixed;-inkscape-font-specification:'Fixed Bold Semi-Condensed';letter-spacing:0px;word-spacing:0px;fill:#000000;fill-opacity:1;stroke:none;stroke-width:1px;stroke-linecap:butt;stroke-linejoin:miter;stroke-opacity:1"
               transform="matrix(0.90343065,0,0,0.9028112,9.9149888,131.6824)"><flowRegion
                 id="flowRegion4312-8-1-8-9-7-6-1"><rect
                   id="rect4314-8-3-2-8-4-8-0"
                   width="273.95673"
                   height="41.022377"
                   x="86.833397"
                   y="987.20721"
                   style="font-style:normal;font-variant:normal;font-weight:bold;font-stretch:semi-condensed;font-family:Fixed;-inkscape-font-specification:'Fixed Bold Semi-Condensed'" /></flowRegion><flowPara
                 id="flowPara4316-9-9-5-8-7-1-3">ein ganz kleines bisschen radioaktiv</flowPara></flowRoot>          </g>
        </g>
        <g
           id="g5097-2-0-5-4"
           transform="matrix(0.95926556,0,0,0.95926556,5.3088697,368.53353)"
           inkscape:export-filename="/tmp/foo.png"
           inkscape:export-xdpi="600"
           inkscape:export-ydpi="600">
          <flowRoot
             transform="matrix(0.8109618,0,0,0.81040579,-38.076681,924.15168)"
             style="font-style:normal;font-variant:normal;font-weight:bold;font-stretch:normal;font-size:22.08568192px;line-height:125%;font-family:Fixed;-inkscape-font-specification:'Fixed Bold';letter-spacing:0px;word-spacing:0px;fill:#000000;fill-opacity:1;stroke:none;stroke-width:1px;stroke-linecap:butt;stroke-linejoin:miter;stroke-opacity:1"
             id="flowRoot4302-1-73-3-7-5"
             xml:space="preserve"><flowRegion
               id="flowRegion4304-6-9-1-3-6"><rect
                 style="font-style:normal;font-variant:normal;font-weight:bold;font-stretch:normal;font-family:Fixed;-inkscape-font-specification:'Fixed Bold'"
                 y="18.296415"
                 x="83.488449"
                 height="44.619812"
                 width="138.32143"
                 id="rect4306-0-8-4-1-9" /></flowRegion><flowPara
               id="flowPara4308-9-4-4-2-0">CAUTION</flowPara></flowRoot>          <flowRoot
             transform="matrix(0.8109618,0,0,0.81040579,65.590943,924.15168)"
             style="font-style:normal;font-variant:normal;font-weight:bold;font-stretch:normal;font-size:22.08568192px;line-height:125%;font-family:Fixed;-inkscape-font-specification:'Fixed Bold';letter-spacing:0px;word-spacing:0px;fill:#000000;fill-opacity:1;stroke:none;stroke-width:1px;stroke-linecap:butt;stroke-linejoin:miter;stroke-opacity:1"
             id="flowRoot4302-1-4-9-2-7-7"
             xml:space="preserve"><flowRegion
               id="flowRegion4304-6-0-4-0-5-6"><rect
                 style="font-style:normal;font-variant:normal;font-weight:bold;font-stretch:normal;font-family:Fixed;-inkscape-font-specification:'Fixed Bold'"
                 y="18.296415"
                 x="83.488449"
                 height="44.619812"
                 width="138.32143"
                 id="rect4306-0-9-7-1-2-2" /></flowRegion><flowPara
               id="flowPara4308-9-6-3-1-0-18">ACHTUNG</flowPara></flowRoot>          <flowRoot
             xml:space="preserve"
             id="flowRoot4302-1-7-3-1-3-5"
             style="font-style:normal;font-variant:normal;font-weight:bold;font-stretch:normal;font-size:22.08568192px;line-height:125%;font-family:Fixed;-inkscape-font-specification:'Fixed Bold';letter-spacing:0px;word-spacing:0px;fill:#000000;fill-opacity:1;stroke:none;stroke-width:1px;stroke-linecap:butt;stroke-linejoin:miter;stroke-opacity:1"
             transform="matrix(0.8109618,0,0,0.81040579,56.755713,923.33017)"><flowRegion
               id="flowRegion4304-6-4-7-3-8-5"><rect
                 id="rect4306-0-6-1-5-8-4"
                 width="138.32143"
                 height="44.619812"
                 x="83.488449"
                 y="18.296415"
                 style="font-style:normal;font-variant:normal;font-weight:bold;font-stretch:normal;font-family:Fixed;-inkscape-font-specification:'Fixed Bold'" /></flowRegion><flowPara
               id="flowPara4308-9-0-8-5-1-71">/</flowPara></flowRoot>        </g>
      </g>
      <g
         transform="matrix(1.000535,0,0,0.95207692,-0.06981065,-258.79699)"
         id="g8812">
        <rect
           style="color:#000000;clip-rule:nonzero;display:inline;overflow:visible;visibility:visible;opacity:1;isolation:auto;mix-blend-mode:normal;color-interpolation:sRGB;color-interpolation-filters:linearRGB;solid-color:#000000;solid-opacity:1;fill:none;fill-opacity:1;fill-rule:nonzero;stroke:#000000;stroke-width:5.09845829;stroke-linecap:butt;stroke-linejoin:miter;stroke-miterlimit:4;stroke-dasharray:none;stroke-dashoffset:0;stroke-opacity:1;marker:none;color-rendering:auto;image-rendering:auto;shape-rendering:auto;text-rendering:auto;enable-background:accumulate"
           id="rect4295-6-7-7-9-4-2-2"
           width="228.64674"
           height="88.663788"
           x="16.159887"
           y="1262.5065"
           ry="7.970449"
           rx="8.3450441" />
        <rect
           rx="7.9724407"
           ry="7.9724407"
           y="1255.3843"
           x="16.159899"
           height="102.90804"
           width="228.64674"
           id="rect4295-6-7-7-9-4-9-8-4"
           style="color:#000000;clip-rule:nonzero;display:inline;overflow:visible;visibility:visible;opacity:1;isolation:auto;mix-blend-mode:normal;color-interpolation:sRGB;color-interpolation-filters:linearRGB;solid-color:#000000;solid-opacity:1;fill:none;fill-opacity:1;fill-rule:nonzero;stroke:#000000;stroke-width:5.09845829;stroke-linecap:butt;stroke-linejoin:miter;stroke-miterlimit:4;stroke-dasharray:none;stroke-dashoffset:0;stroke-opacity:1;marker:none;color-rendering:auto;image-rendering:auto;shape-rendering:auto;text-rendering:auto;enable-background:accumulate" />
        <rect
           rx="8.3450441"
           ry="7.970449"
           y="1257.7583"
           x="16.159899"
           height="97.142456"
           width="228.64674"
           id="rect4295-6-7-7-9-4-9-2-2-7"
           style="color:#000000;clip-rule:nonzero;display:inline;overflow:visible;visibility:visible;opacity:1;isolation:auto;mix-blend-mode:normal;color-interpolation:sRGB;color-interpolation-filters:linearRGB;solid-color:#000000;solid-opacity:1;fill:none;fill-opacity:1;fill-rule:nonzero;stroke:#000000;stroke-width:5.09845829;stroke-linecap:butt;stroke-linejoin:miter;stroke-miterlimit:4;stroke-dasharray:none;stroke-dashoffset:0;stroke-opacity:1;marker:none;color-rendering:auto;image-rendering:auto;shape-rendering:auto;text-rendering:auto;enable-background:accumulate" />
      </g>
    </g>
  </g>
</svg>
